<?xml version="1.0" standalone="no"?>
<!DOCTYPE svg PUBLIC "-//W3C//DTD SVG 20010904//EN"
 "http://www.w3.org/TR/2001/REC-SVG-20010904/DTD/svg10.dtd">
<svg version="1.0" xmlns="http://www.w3.org/2000/svg"
 width="980.000000pt" height="980.000000pt" viewBox="0 0 980.000000 980.000000"
 preserveAspectRatio="xMidYMid meet">

<g transform="translate(0.000000,980.000000) scale(0.100000,-0.100000)"
fill="#000000" stroke="none">
<path d="M3120 7214 c-30 -2 -70 -6 -88 -9 l-32 -6 98 -97 c173 -171 195 -269
83 -381 -22 -22 -115 -90 -205 -151 -187 -124 -286 -212 -350 -309 -71 -107
-96 -196 -111 -396 -16 -202 -56 -315 -139 -393 -28 -26 -150 -113 -271 -194
-233 -154 -290 -204 -301 -263 -14 -75 1 -159 44 -247 53 -107 114 -182 214
-262 98 -78 166 -116 284 -155 207 -69 381 -64 642 20 196 63 263 51 308 -53
17 -39 19 -75 20 -408 0 -297 3 -383 17 -464 42 -239 134 -416 294 -566 360
-337 946 -387 1748 -149 l170 50 33 127 c21 81 51 165 83 231 44 90 62 115
137 190 102 101 168 142 300 187 117 40 197 54 492 89 272 31 432 62 571 110
430 149 706 419 807 793 24 89 26 114 26 297 1 187 -1 211 -33 375 -18 96 -37
179 -41 183 -4 4 -87 -10 -186 -33 -252 -57 -340 -70 -489 -70 -160 0 -245 17
-351 69 -138 68 -212 154 -369 421 -168 287 -258 387 -420 465 -110 53 -165
65 -301 65 -176 0 -330 -42 -552 -152 -67 -33 -124 -59 -126 -57 -1 2 -15 27
-31 54 -175 308 -444 593 -735 780 -160 103 -432 217 -623 260 -163 37 -454
60 -617 49z m-91 -1221 c14 -11 35 -41 45 -67 19 -45 19 -47 0 -92 -10 -26
-31 -56 -45 -66 -37 -28 -99 -34 -140 -14 -53 26 -74 62 -74 128 0 49 4 61 30
88 17 18 39 36 50 41 31 14 104 3 134 -18z m2886 12 c145 -38 221 -119 409
-436 88 -148 128 -206 185 -272 238 -272 565 -358 1041 -276 69 12 134 22 145
23 18 1 21 -10 34 -114 25 -201 -13 -411 -100 -556 -105 -175 -312 -326 -562
-409 -142 -47 -265 -70 -537 -100 -129 -14 -280 -35 -335 -46 -432 -87 -716
-334 -845 -737 -15 -47 -35 -89 -43 -94 -28 -15 -318 -86 -452 -109 -109 -20
-165 -23 -345 -23 -233 0 -306 11 -463 70 -164 63 -312 198 -391 357 -72 145
-90 238 -90 447 0 151 4 193 28 305 74 355 259 745 508 1074 108 142 296 356
305 347 2 -2 -19 -61 -46 -132 -136 -357 -252 -740 -287 -949 -25 -151 -23
-313 4 -402 52 -167 180 -253 378 -253 147 0 309 42 479 125 241 117 403 261
491 440 154 313 121 672 -128 1368 -33 93 -58 170 -56 172 1 1 46 24 98 50
254 127 431 167 575 130z"/>
<path d="M6023 5350 c-87 -53 -102 -165 -32 -245 58 -65 152 -69 219 -9 109
99 42 274 -105 274 -32 0 -62 -7 -82 -20z"/>
</g>
</svg>
